<mxfile host="Electron" modified="2023-12-24T10:02:23.051Z" agent="Mozilla/5.0 (X11; Linux x86_64) AppleWebKit/537.36 (KHTML, like Gecko) draw.io/22.1.11 Chrome/114.0.5735.289 Electron/25.9.8 Safari/537.36" etag="E1uV4Hgnxb0GaiHkm0iA" version="22.1.11" type="device">
  <diagram name="Page-1" id="CxC2EvUevUztxhVHVNh8">
    <mxGraphModel dx="989" dy="590" grid="1" gridSize="10" guides="1" tooltips="1" connect="1" arrows="1" fold="1" page="1" pageScale="1" pageWidth="850" pageHeight="1100" math="0" shadow="0">
      <root>
        <mxCell id="0" />
        <mxCell id="1" parent="0" />
        <mxCell id="ALqx9rOaHvrfx56onXsC-19" value="" style="rounded=1;whiteSpace=wrap;html=1;" vertex="1" parent="1">
          <mxGeometry x="123.06" y="228.56" width="100" height="90" as="geometry" />
        </mxCell>
        <mxCell id="ALqx9rOaHvrfx56onXsC-13" value="" style="shape=image;verticalLabelPosition=bottom;labelBackgroundColor=default;verticalAlign=top;aspect=fixed;imageAspect=0;image=https://images.g2crowd.com/uploads/product/image/social_landscape/social_landscape_7c9fcf92115827bb20fe036eb42d7daa/canonical-maas.png;clipPath=inset(4.43% 24.67% 3.8% 26%);" vertex="1" parent="1">
          <mxGeometry x="100" y="210" width="61.24" height="60" as="geometry" />
        </mxCell>
        <mxCell id="ALqx9rOaHvrfx56onXsC-4" value="" style="rounded=1;whiteSpace=wrap;html=1;" vertex="1" parent="1">
          <mxGeometry x="312" y="229.56" width="100" height="90" as="geometry" />
        </mxCell>
        <mxCell id="ALqx9rOaHvrfx56onXsC-3" value="" style="shape=image;verticalLabelPosition=bottom;labelBackgroundColor=default;verticalAlign=top;aspect=fixed;imageAspect=0;image=https://dashboard.snapcraft.io/site_media/appmedia/2018/11/image-juju-256.svg.png;" vertex="1" parent="1">
          <mxGeometry x="295" y="210.44" width="55.12" height="55.12" as="geometry" />
        </mxCell>
        <mxCell id="ALqx9rOaHvrfx56onXsC-35" value="" style="group;rounded=1;" vertex="1" connectable="0" parent="1">
          <mxGeometry x="492" y="209.44" width="114" height="120.56" as="geometry" />
        </mxCell>
        <mxCell id="ALqx9rOaHvrfx56onXsC-17" value="" style="rounded=1;whiteSpace=wrap;html=1;" vertex="1" parent="ALqx9rOaHvrfx56onXsC-35">
          <mxGeometry x="14" y="19.120000000000005" width="100" height="90" as="geometry" />
        </mxCell>
        <mxCell id="ALqx9rOaHvrfx56onXsC-14" value="" style="shape=image;verticalLabelPosition=bottom;labelBackgroundColor=default;verticalAlign=top;aspect=fixed;imageAspect=0;image=https://dashboard.snapcraft.io/site_media/appmedia/2023/06/OpenStack-Logo-Mark_1.png;" vertex="1" parent="ALqx9rOaHvrfx56onXsC-35">
          <mxGeometry width="45.12" height="45.12" as="geometry" />
        </mxCell>
        <mxCell id="ALqx9rOaHvrfx56onXsC-49" value="nic1" style="rounded=0;whiteSpace=wrap;html=1;fillColor=#d5e8d4;strokeColor=#82b366;" vertex="1" parent="ALqx9rOaHvrfx56onXsC-35">
          <mxGeometry x="45.11999999999989" y="100.56" width="40" height="20" as="geometry" />
        </mxCell>
        <mxCell id="ALqx9rOaHvrfx56onXsC-86" value="openstack-controller" style="text;html=1;strokeColor=none;fillColor=none;align=center;verticalAlign=middle;whiteSpace=wrap;rounded=0;fontSize=11;fontFamily=Helvetica;fontColor=default;" vertex="1" parent="ALqx9rOaHvrfx56onXsC-35">
          <mxGeometry x="34" y="49.120000000000005" width="60" height="30" as="geometry" />
        </mxCell>
        <mxCell id="ALqx9rOaHvrfx56onXsC-36" value="" style="group" vertex="1" connectable="0" parent="1">
          <mxGeometry x="492" y="490" width="114" height="120.44" as="geometry" />
        </mxCell>
        <mxCell id="ALqx9rOaHvrfx56onXsC-37" value="" style="rounded=1;whiteSpace=wrap;html=1;" vertex="1" parent="ALqx9rOaHvrfx56onXsC-36">
          <mxGeometry x="14" y="19.120000000000005" width="100" height="90" as="geometry" />
        </mxCell>
        <mxCell id="ALqx9rOaHvrfx56onXsC-38" value="" style="shape=image;verticalLabelPosition=bottom;labelBackgroundColor=default;verticalAlign=top;aspect=fixed;imageAspect=0;image=https://dashboard.snapcraft.io/site_media/appmedia/2023/06/OpenStack-Logo-Mark_1.png;" vertex="1" parent="ALqx9rOaHvrfx56onXsC-36">
          <mxGeometry width="45.12" height="45.12" as="geometry" />
        </mxCell>
        <mxCell id="ALqx9rOaHvrfx56onXsC-50" value="nic2" style="rounded=1;whiteSpace=wrap;html=1;fillColor=#dae8fc;strokeColor=#6c8ebf;" vertex="1" parent="ALqx9rOaHvrfx56onXsC-36">
          <mxGeometry x="45.120000000000005" y="100.44" width="40" height="20" as="geometry" />
        </mxCell>
        <mxCell id="ALqx9rOaHvrfx56onXsC-54" value="nic1" style="rounded=1;whiteSpace=wrap;html=1;fillColor=#d5e8d4;strokeColor=#82b366;" vertex="1" parent="ALqx9rOaHvrfx56onXsC-36">
          <mxGeometry x="68" y="10.439999999999998" width="40" height="20" as="geometry" />
        </mxCell>
        <mxCell id="ALqx9rOaHvrfx56onXsC-89" value="compute03" style="text;html=1;align=center;verticalAlign=middle;resizable=0;points=[];autosize=1;strokeColor=none;fillColor=none;fontSize=11;fontFamily=Helvetica;fontColor=default;" vertex="1" parent="ALqx9rOaHvrfx56onXsC-36">
          <mxGeometry x="24" y="49.120000000000005" width="80" height="30" as="geometry" />
        </mxCell>
        <mxCell id="ALqx9rOaHvrfx56onXsC-39" value="" style="group" vertex="1" connectable="0" parent="1">
          <mxGeometry x="298" y="490" width="114" height="109.12" as="geometry" />
        </mxCell>
        <mxCell id="ALqx9rOaHvrfx56onXsC-40" value="" style="rounded=1;whiteSpace=wrap;html=1;" vertex="1" parent="ALqx9rOaHvrfx56onXsC-39">
          <mxGeometry x="14" y="19.120000000000005" width="100" height="90" as="geometry" />
        </mxCell>
        <mxCell id="ALqx9rOaHvrfx56onXsC-41" value="" style="shape=image;verticalLabelPosition=bottom;labelBackgroundColor=default;verticalAlign=top;aspect=fixed;imageAspect=0;image=https://dashboard.snapcraft.io/site_media/appmedia/2023/06/OpenStack-Logo-Mark_1.png;" vertex="1" parent="ALqx9rOaHvrfx56onXsC-39">
          <mxGeometry width="45.12" height="45.12" as="geometry" />
        </mxCell>
        <mxCell id="ALqx9rOaHvrfx56onXsC-53" value="nic1" style="rounded=1;whiteSpace=wrap;html=1;fillColor=#d5e8d4;strokeColor=#82b366;" vertex="1" parent="ALqx9rOaHvrfx56onXsC-39">
          <mxGeometry x="61.99999999999994" y="10.439999999999998" width="40" height="20" as="geometry" />
        </mxCell>
        <mxCell id="ALqx9rOaHvrfx56onXsC-88" value="compute02" style="text;html=1;align=center;verticalAlign=middle;resizable=0;points=[];autosize=1;strokeColor=none;fillColor=none;fontSize=11;fontFamily=Helvetica;fontColor=default;" vertex="1" parent="ALqx9rOaHvrfx56onXsC-39">
          <mxGeometry x="24" y="49.120000000000005" width="80" height="30" as="geometry" />
        </mxCell>
        <mxCell id="ALqx9rOaHvrfx56onXsC-42" value="" style="group" vertex="1" connectable="0" parent="1">
          <mxGeometry x="109.06" y="490" width="114" height="109.12" as="geometry" />
        </mxCell>
        <mxCell id="ALqx9rOaHvrfx56onXsC-43" value="" style="rounded=1;whiteSpace=wrap;html=1;" vertex="1" parent="ALqx9rOaHvrfx56onXsC-42">
          <mxGeometry x="14" y="19.120000000000005" width="100" height="90" as="geometry" />
        </mxCell>
        <mxCell id="ALqx9rOaHvrfx56onXsC-44" value="" style="shape=image;verticalLabelPosition=bottom;labelBackgroundColor=default;verticalAlign=top;aspect=fixed;imageAspect=0;image=https://dashboard.snapcraft.io/site_media/appmedia/2023/06/OpenStack-Logo-Mark_1.png;" vertex="1" parent="ALqx9rOaHvrfx56onXsC-42">
          <mxGeometry width="45.12" height="45.12" as="geometry" />
        </mxCell>
        <mxCell id="ALqx9rOaHvrfx56onXsC-55" value="nic1" style="rounded=1;whiteSpace=wrap;html=1;fillColor=#d5e8d4;strokeColor=#82b366;" vertex="1" parent="ALqx9rOaHvrfx56onXsC-42">
          <mxGeometry x="60.93999999999994" y="12.560000000000002" width="40" height="20" as="geometry" />
        </mxCell>
        <mxCell id="ALqx9rOaHvrfx56onXsC-87" value="compute01" style="text;html=1;align=center;verticalAlign=middle;resizable=0;points=[];autosize=1;strokeColor=none;fillColor=none;fontSize=11;fontFamily=Helvetica;fontColor=default;" vertex="1" parent="ALqx9rOaHvrfx56onXsC-42">
          <mxGeometry x="24" y="49.120000000000005" width="80" height="30" as="geometry" />
        </mxCell>
        <mxCell id="ALqx9rOaHvrfx56onXsC-45" value="nic1" style="rounded=1;whiteSpace=wrap;html=1;fillColor=#d5e8d4;strokeColor=#82b366;glass=0;shadow=0;" vertex="1" parent="1">
          <mxGeometry x="153.05999999999995" y="310" width="40" height="20" as="geometry" />
        </mxCell>
        <mxCell id="ALqx9rOaHvrfx56onXsC-47" value="nic2" style="rounded=1;whiteSpace=wrap;html=1;fillColor=#dae8fc;strokeColor=#6c8ebf;" vertex="1" parent="1">
          <mxGeometry x="590" y="263.56" width="40" height="20" as="geometry" />
        </mxCell>
        <mxCell id="ALqx9rOaHvrfx56onXsC-48" value="nic1" style="rounded=1;whiteSpace=wrap;html=1;fillColor=#d5e8d4;strokeColor=#82b366;" vertex="1" parent="1">
          <mxGeometry x="341.99999999999994" y="310" width="40" height="20" as="geometry" />
        </mxCell>
        <mxCell id="ALqx9rOaHvrfx56onXsC-51" value="nic2" style="rounded=1;whiteSpace=wrap;html=1;fillColor=#dae8fc;strokeColor=#6c8ebf;" vertex="1" parent="1">
          <mxGeometry x="342" y="590.44" width="40" height="20" as="geometry" />
        </mxCell>
        <mxCell id="ALqx9rOaHvrfx56onXsC-52" value="nic2" style="rounded=1;whiteSpace=wrap;html=1;fillColor=#dae8fc;strokeColor=#6c8ebf;" vertex="1" parent="1">
          <mxGeometry x="153.06" y="590.44" width="40" height="20" as="geometry" />
        </mxCell>
        <mxCell id="ALqx9rOaHvrfx56onXsC-65" value="" style="endArrow=none;html=1;rounded=0;labelBackgroundColor=default;align=center;verticalAlign=middle;fontFamily=Helvetica;fontSize=11;fontColor=default;shape=connector;edgeStyle=orthogonalEdgeStyle;entryX=0.5;entryY=1;entryDx=0;entryDy=0;exitX=1;exitY=0.5;exitDx=0;exitDy=0;strokeWidth=2;" edge="1" parent="1" source="ALqx9rOaHvrfx56onXsC-47" target="ALqx9rOaHvrfx56onXsC-52">
          <mxGeometry width="50" height="50" relative="1" as="geometry">
            <mxPoint x="170" y="660" as="sourcePoint" />
            <mxPoint x="220" y="610" as="targetPoint" />
            <Array as="points">
              <mxPoint x="680" y="274" />
              <mxPoint x="680" y="680" />
              <mxPoint x="173" y="680" />
            </Array>
          </mxGeometry>
        </mxCell>
        <mxCell id="ALqx9rOaHvrfx56onXsC-67" value="" style="endArrow=none;html=1;rounded=0;labelBackgroundColor=default;align=center;verticalAlign=middle;fontFamily=Helvetica;fontSize=11;fontColor=default;shape=connector;edgeStyle=orthogonalEdgeStyle;entryX=0.5;entryY=1;entryDx=0;entryDy=0;exitX=1;exitY=0.5;exitDx=0;exitDy=0;strokeWidth=2;" edge="1" parent="1">
          <mxGeometry width="50" height="50" relative="1" as="geometry">
            <mxPoint x="629.9999999999998" y="273.55999999999995" as="sourcePoint" />
            <mxPoint x="360" y="610.56" as="targetPoint" />
            <Array as="points">
              <mxPoint x="680" y="274" />
              <mxPoint x="680" y="680" />
              <mxPoint x="360" y="680" />
            </Array>
          </mxGeometry>
        </mxCell>
        <mxCell id="ALqx9rOaHvrfx56onXsC-68" value="" style="endArrow=none;html=1;rounded=0;labelBackgroundColor=default;align=center;verticalAlign=middle;fontFamily=Helvetica;fontSize=11;fontColor=default;shape=connector;edgeStyle=orthogonalEdgeStyle;entryX=1;entryY=0.5;entryDx=0;entryDy=0;strokeWidth=2;" edge="1" parent="1" target="ALqx9rOaHvrfx56onXsC-47">
          <mxGeometry width="50" height="50" relative="1" as="geometry">
            <mxPoint x="560" y="609.94" as="sourcePoint" />
            <mxPoint x="640" y="280" as="targetPoint" />
            <Array as="points">
              <mxPoint x="560" y="680" />
              <mxPoint x="680" y="680" />
              <mxPoint x="680" y="274" />
              <mxPoint x="640" y="274" />
            </Array>
          </mxGeometry>
        </mxCell>
        <mxCell id="ALqx9rOaHvrfx56onXsC-74" value="" style="group" vertex="1" connectable="0" parent="1">
          <mxGeometry x="173" y="410" width="407" height="20" as="geometry" />
        </mxCell>
        <mxCell id="ALqx9rOaHvrfx56onXsC-71" value="" style="endArrow=none;html=1;rounded=0;labelBackgroundColor=default;align=center;verticalAlign=middle;fontFamily=Helvetica;fontSize=11;fontColor=default;shape=connector;edgeStyle=orthogonalEdgeStyle;exitX=0.5;exitY=1;exitDx=0;exitDy=0;entryX=0.555;entryY=1.033;entryDx=0;entryDy=0;entryPerimeter=0;strokeWidth=2;" edge="1" parent="ALqx9rOaHvrfx56onXsC-74" source="ALqx9rOaHvrfx56onXsC-45" target="ALqx9rOaHvrfx56onXsC-49">
          <mxGeometry width="50" height="50" relative="1" as="geometry">
            <mxPoint x="147" as="sourcePoint" />
            <mxPoint x="197" as="targetPoint" />
            <Array as="points">
              <mxPoint />
              <mxPoint x="386" />
            </Array>
          </mxGeometry>
        </mxCell>
        <mxCell id="ALqx9rOaHvrfx56onXsC-72" value="" style="endArrow=none;html=1;rounded=0;labelBackgroundColor=default;align=center;verticalAlign=middle;fontFamily=Helvetica;fontSize=11;fontColor=default;shape=connector;edgeStyle=orthogonalEdgeStyle;exitX=0.5;exitY=0;exitDx=0;exitDy=0;entryX=0.5;entryY=0;entryDx=0;entryDy=0;strokeWidth=2;" edge="1" parent="ALqx9rOaHvrfx56onXsC-74" source="ALqx9rOaHvrfx56onXsC-55" target="ALqx9rOaHvrfx56onXsC-54">
          <mxGeometry width="50" height="50" relative="1" as="geometry">
            <mxPoint x="10" as="sourcePoint" />
            <mxPoint x="396" as="targetPoint" />
            <Array as="points">
              <mxPoint x="17" />
              <mxPoint x="407" />
            </Array>
          </mxGeometry>
        </mxCell>
        <mxCell id="ALqx9rOaHvrfx56onXsC-73" value="" style="endArrow=none;html=1;rounded=0;labelBackgroundColor=default;align=center;verticalAlign=middle;fontFamily=Helvetica;fontSize=11;fontColor=default;shape=connector;edgeStyle=orthogonalEdgeStyle;entryX=0.5;entryY=1;entryDx=0;entryDy=0;exitX=0.5;exitY=0;exitDx=0;exitDy=0;strokeWidth=2;" edge="1" parent="ALqx9rOaHvrfx56onXsC-74" source="ALqx9rOaHvrfx56onXsC-53" target="ALqx9rOaHvrfx56onXsC-48">
          <mxGeometry width="50" height="50" relative="1" as="geometry">
            <mxPoint x="167" as="sourcePoint" />
            <mxPoint x="217" as="targetPoint" />
            <Array as="points">
              <mxPoint x="207" />
              <mxPoint x="189" />
            </Array>
          </mxGeometry>
        </mxCell>
        <mxCell id="ALqx9rOaHvrfx56onXsC-75" value="&lt;font style=&quot;font-size: 10px;&quot;&gt;Isekai-net: 137.11.11.0/24&lt;/font&gt;" style="text;html=1;strokeColor=default;fillColor=default;align=center;verticalAlign=middle;whiteSpace=wrap;rounded=1;fontSize=11;fontFamily=Helvetica;fontColor=default;strokeWidth=1;" vertex="1" parent="1">
          <mxGeometry x="640" y="400" width="120" height="20" as="geometry" />
        </mxCell>
        <mxCell id="ALqx9rOaHvrfx56onXsC-77" value="&lt;font style=&quot;font-size: 10px;&quot;&gt;Sekai-net: 137.10.10.0/24&lt;br&gt;Vlan 1337 : 192.168.10.0/24&lt;br&gt;&lt;/font&gt;" style="text;html=1;strokeColor=default;fillColor=default;align=center;verticalAlign=middle;whiteSpace=wrap;rounded=1;fontSize=11;fontFamily=Helvetica;fontColor=default;strokeWidth=1;" vertex="1" parent="1">
          <mxGeometry x="298" y="370" width="138" height="30" as="geometry" />
        </mxCell>
        <mxCell id="ALqx9rOaHvrfx56onXsC-79" value="Neutron external network" style="rounded=1;whiteSpace=wrap;html=1;fontFamily=Helvetica;fontSize=11;fontColor=default;" vertex="1" parent="1">
          <mxGeometry x="605" y="430" width="190" height="20" as="geometry" />
        </mxCell>
        <mxCell id="ALqx9rOaHvrfx56onXsC-80" value="Sekai-net (External endpoint)&lt;br&gt;Vlan 1337 (internal endpoint)" style="rounded=1;whiteSpace=wrap;html=1;fontFamily=Helvetica;fontSize=11;fontColor=default;" vertex="1" parent="1">
          <mxGeometry x="272" y="420" width="190" height="30" as="geometry" />
        </mxCell>
        <mxCell id="ALqx9rOaHvrfx56onXsC-83" value="maas" style="text;html=1;strokeColor=none;fillColor=none;align=center;verticalAlign=middle;whiteSpace=wrap;rounded=0;fontSize=11;fontFamily=Helvetica;fontColor=default;" vertex="1" parent="1">
          <mxGeometry x="143.06" y="258.56" width="60" height="30" as="geometry" />
        </mxCell>
        <mxCell id="ALqx9rOaHvrfx56onXsC-84" value="juju-controller" style="text;html=1;strokeColor=none;fillColor=none;align=center;verticalAlign=middle;whiteSpace=wrap;rounded=0;fontSize=11;fontFamily=Helvetica;fontColor=default;" vertex="1" parent="1">
          <mxGeometry x="332" y="259.56" width="60" height="30" as="geometry" />
        </mxCell>
      </root>
    </mxGraphModel>
  </diagram>
</mxfile>
